<svg xmlns="http://www.w3.org/2000/svg" viewBox="0 0 512 512" width="512" height="512">
  <defs>
    <linearGradient id="gradient" x1="0%" y1="0%" x2="100%" y2="100%">
      <stop offset="0%" style="stop-color:#667eea;stop-opacity:1" />
      <stop offset="100%" style="stop-color:#764ba2;stop-opacity:1" />
    </linearGradient>
    <filter id="shadow" x="-50%" y="-50%" width="200%" height="200%">
      <feDropShadow dx="0" dy="8" stdDeviation="16" flood-color="#000000" flood-opacity="0.15"/>
    </filter>
  </defs>
  
  <!-- Background circle -->
  <circle cx="256" cy="256" r="240" fill="url(#gradient)" filter="url(#shadow)"/>
  
  <!-- Chat bubble 1 (main) -->
  <path d="M160 180 Q140 160 160 140 L320 140 Q340 160 340 180 L340 240 Q340 260 320 260 L200 260 L160 300 Z" 
        fill="white" opacity="0.95"/>
  
  <!-- Chat bubble 2 (secondary) -->
  <path d="M200 280 Q180 260 200 240 L360 240 Q380 260 380 280 L380 340 Q380 360 360 360 L240 360 L200 400 Z" 
        fill="white" opacity="0.8"/>
  
  <!-- Message lines in bubble 1 -->
  <rect x="180" y="170" width="120" height="8" rx="4" fill="url(#gradient)" opacity="0.7"/>
  <rect x="180" y="190" width="100" height="8" rx="4" fill="url(#gradient)" opacity="0.5"/>
  <rect x="180" y="210" width="80" height="8" rx="4" fill="url(#gradient)" opacity="0.3"/>
  
  <!-- Message lines in bubble 2 -->
  <rect x="220" y="270" width="100" height="8" rx="4" fill="url(#gradient)" opacity="0.6"/>
  <rect x="220" y="290" width="120" height="8" rx="4" fill="url(#gradient)" opacity="0.4"/>
  
  <!-- Security badge -->
  <circle cx="400" cy="150" r="45" fill="white" stroke="url(#gradient)" stroke-width="6"/>
  <path d="M400 120 L415 135 L425 125 L430 130 L415 145 L400 130 L385 145 L370 130 L375 125 L385 135 Z" 
        fill="url(#gradient)"/>
  
  <!-- Lock icon in security badge -->
  <rect x="390" y="140" width="20" height="15" rx="2" fill="url(#gradient)"/>
  <path d="M395 140 Q395 135 400 130 Q405 135 405 140" 
        stroke="url(#gradient)" stroke-width="3" fill="none"/>
</svg>